/* XPM */
static char *_536899463225[] = {
/* columns rows colors chars-per-pixel */
"32 32 45 1 ",
"  c #CAC6A3",
". c #8C8970",
"X c #827F68",
"o c #838069",
"O c #7D7A65",
"+ c #CFCBA6",
"@ c #B1AD8A",
"# c #ACA885",
"$ c #ADA986",
"% c #B0AC89",
"& c #B1AD89",
"* c #B0AD89",
"= c #A8A482",
"- c #A7A382",
"; c #D0CCA7",
": c #B7B38E",
"> c #B6B28E",
", c #B3AF8A",
"< c #B4B08B",
"1 c #AEAA87",
"2 c #8D8A70",
"3 c #A7A482",
"4 c #86836B",
"5 c #AFAB87",
"6 c #8E8B71",
"7 c #7F7C66",
"8 c #AFAB88",
"9 c #B6B28D",
"0 c #BEBB99",
"q c #8D8A72",
"w c #ACA985",
"e c gray38",
"r c #C7C3A0",
"t c #908D74",
"y c #B8B48F",
"u c gray46",
"i c gray62",
"p c #B2AE89",
"a c #263238",
"s c #546E7A",
"d c #607D8B",
"f c #ADAB87",
"g c #BAB691",
"h c #D4D0AB",
"j c white",
/* pixels */
" .XoXXXXXXXXXXXXXXXXXXooooooooXO",
"+@#$%&**************&%$$$$#=#$-X",
";:>>>>>>>>>>>>>>>>>>>>>>,<121<$o",
";>>>>>>>>>>>>>>>>>>>>>>>>,343,$o",
";@>>>>>>>>>>>>>>>>>>>>>>>56768$o",
";*>>>>>>>>>>>>>>>>>>>>>>>90q09wo",
";*>>>>>>>>>>eeeeeee>>>>>::rtrywo",
";*>>>>>>>>eeuuuiiiiee>>>>90q09wo",
";*>>>>>>>euuiiiiiiiiie>>>56768$o",
";*>>>>>>euiiiiiiiiiiiie>:p0q0,$o",
";*>>>>>euiiiiaaaaauiiiie:,rtr<$o",
";*>>>>>euiiaasssssaauiie:,0q0,$o",
";*>>>>euiiiaddddsssauiiie>0q0,$o",
";*>>>>euiiaddddddsssauiie>rtr,$o",
";*>>>>euiiadddddddssauiie>0q01$o",
";*>>>>euiiadddddddssauiie>6761$o",
";*>>>>euiiadddddddssauiie>0q0,$o",
";*>>>>euiiaddddddsssauiie>rtr,$o",
";*>>>>euiiiaddddsssauiiie>0q0,$o",
";*>>>>>euiiaasssssaauiie>>676,$o",
";*>>>>>euiiiiaaaaauiiiie>>0q01$o",
";*>>>>>>euiiiiiiiiiiiie>>>rtr1$o",
";*>>>>>>>euiiiiiiiiiie>>>>0q0,$o",
";*>>>>>>>>eeuuuiiiiee>>>>>676,$o",
";*>>>>>>>>>>eeeeeee>>>>>>>0q0,$o",
";*>>>>>>>>>>>>>>>>>>>>>>>>rtr,$o",
";*>>>>>>>>>>>>>>>>>>>>>>>>0q0f$o",
";@>>>>>>>>>>>>>>>>>>>>>>>>676f$o",
";>>>>>>>>>>>>>>>>>>>>>>>,,343,$o",
";:>>>>>>>>>>>>>>>>>>>>>>,,$3$,#X",
";g:>@****************@$$$$$$$$@.",
"h;;;;;;;;;;;;;;;;;;;;;;;;;;;;;+ "
};
