/* XPM */
static char *_536899472518[] = {
/* columns rows colors chars-per-pixel */
"32 32 178 2 ",
"   c #3C3229",
".  c #4F3E37",
"X  c #6F3720",
"o  c #554332",
"O  c #594537",
"+  c #734A38",
"@  c #79523A",
"#  c #594F46",
"$  c #7C4C42",
"%  c #625242",
"&  c #665648",
"*  c #715643",
"=  c #775B47",
"-  c #735A4C",
";  c #6A5952",
":  c #7C6054",
">  c #7E6D62",
",  c #7E7B66",
"<  c #8C614E",
"1  c #9F654F",
"2  c #876C57",
"3  c #836759",
"4  c #8C635D",
"5  c #9B6953",
"6  c #8F775B",
"7  c #9E7257",
"8  c #8A6E63",
"9  c #846F69",
"0  c #906B62",
"q  c #8B7067",
"w  c #837E67",
"e  c #867568",
"r  c #827F68",
"t  c #907564",
"y  c #9B7564",
"u  c #927E66",
"i  c #997D67",
"p  c #95736A",
"a  c #B97375",
"s  c #DD5041",
"d  c #DE5E51",
"f  c #8E8D67",
"g  c #838069",
"h  c #8E856D",
"j  c #8F8D6A",
"k  c #91826B",
"l  c #8D8A71",
"z  c #968574",
"x  c #9D8174",
"c  c #928B72",
"v  c #92817A",
"b  c #9A8479",
"n  c #938F79",
"m  c #9C9176",
"M  c #939079",
"N  c #A98368",
"B  c #B48F6D",
"V  c #A28774",
"C  c #AB8975",
"Z  c #A5877D",
"A  c #AC867B",
"S  c #B18D79",
"D  c #BD8E7B",
"F  c #BC9475",
"G  c #BA927C",
"H  c #B99E7A",
"J  c #C09776",
"K  c #BEC944",
"L  c #C2CC53",
"P  c #9C8C82",
"I  c #A78C84",
"U  c #AC8F89",
"Y  c #A09882",
"T  c #AC938C",
"R  c #B49687",
"E  c #BB9384",
"W  c #BF9984",
"Q  c #B4948C",
"!  c #BC9B8A",
"~  c #BC9A98",
"^  c #A7A482",
"/  c #AAA683",
"(  c #ADA986",
")  c #AFAB88",
"_  c #B1AE89",
"`  c #B6B28E",
"'  c #B8B48F",
"]  c #B9A493",
"[  c #BEA29B",
"{  c #B9B590",
"}  c #BEBB99",
"|  c #C09686",
" . c #C39D84",
".. c #CB9B83",
"X. c #C2938D",
"o. c #CA9D8C",
"O. c #C59D96",
"+. c #C89D99",
"@. c #CBA386",
"#. c #C2A18C",
"$. c #D2A187",
"%. c #D3A58C",
"&. c #D8A58D",
"*. c #D2AC8C",
"=. c #CDB18E",
"-. c #CCA594",
";. c #CAA29A",
":. c #CBAC9E",
">. c #D4A792",
",. c #D5AC93",
"<. c #DAAD94",
"1. c #D1A69C",
"2. c #D4AD9C",
"3. c #DDAF9A",
"4. c #CDB393",
"5. c #DAB496",
"6. c #D5B69D",
"7. c #DCB39C",
"8. c #DCBB9A",
"9. c #E2B49E",
"0. c #C6ACA2",
"q. c #CCADA3",
"w. c #C6AEAA",
"e. c #CBADAB",
"r. c #D3ADA3",
"t. c #CAB4AB",
"y. c #CEBCAB",
"u. c #D3B4A5",
"i. c #DCB4A3",
"p. c #DCBAA4",
"a. c #D4B4A9",
"s. c #DBB5A8",
"d. c #DBBBAB",
"f. c #D4BAB3",
"g. c #DCBDB3",
"h. c #DABCB9",
"j. c #E2B5A3",
"k. c #E2BBA4",
"l. c #E4B4A8",
"z. c #E3BBAB",
"x. c #E2B4B4",
"c. c #E2BDB3",
"v. c #E3BFB9",
"b. c #CEC39F",
"n. c #C7C3A0",
"m. c #CBC6A2",
"M. c #CFC9A6",
"N. c #D0CBA7",
"B. c #D2CCA9",
"V. c #D4D0AB",
"C. c #D5C4B5",
"Z. c #DEC4B2",
"A. c #DBC9B6",
"S. c #DCC5BA",
"D. c #DDCBBC",
"F. c #DCDEBA",
"G. c #E3C1A6",
"H. c #E4C1AC",
"J. c #E2C4B4",
"K. c #EBC6B6",
"L. c #E4C9B3",
"P. c #E3C5BB",
"I. c #E9C6BB",
"U. c #E3CABD",
"Y. c #E5D0BF",
"T. c #DBC7C0",
"R. c #DEC9C0",
"E. c #E0C7C0",
"W. c #E5CCC1",
"Q. c #E9CDC3",
"!. c #E1D0C6",
"~. c #EBD1C6",
"^. c #E7D0C8",
"/. c #E9D3CB",
"(. c #EBD7D0",
"). c #F3E8DF",
"_. c #EAE5E0",
"`. c #F6EEE8",
/* pixels */
"m.l r g r g r r r r r g w g g g r g g g w r r r g g w g g w r , ",
"M._ ( ( ) ) ) ) ) _ _ ) ) ) _ _ ) ) ) ) _ _ ( ( ( ( ( / ( ( ^ w ",
"M.` ` _ M.V.m.m.M.M.N.M.N.N.N.N.N.N.N.B.B.N.{ _ _ _ ) c ( ` ( r ",
"N.` ^ Y A.y.z P t.0.R Q C.S.D.L.Y.Q.Q.Q.U.P.N.{ _ ` ^ g ^ _ ( r ",
"M.` g C.Y.0.v P t.Q b : f.g.S.c.J.I.W.Q.Q.I.J.M.` ) l , l ) ( g ",
"M.) g W.Y.y.P v ] [ > 9 f.u.g.g.c.P.P.Q.Q.J.s.M.` ` } l } ` ( g ",
"N._ r D.D.C.P ; b w.# e w.q.h.g.z.c.c.I.J.x.u.B.' ` n.l b.` ( w ",
"N._ r !./.T.b . 8 0.  & ~ ;.h.c.c.P.J.P.v.a.g.B.` ` } l } ` ( g ",
"N._ r R.(.!.T & : U . e O.+.h.h.v.P.v.P.v.J.Q.B.` ) l r l _ ( r ",
"N._ g R./.^.[ 9 - 0 q q.+.+.f.P.I.E.Q.x.a.g.W.B.' _ / g ^ _ ( g ",
"N.) r R.^.^.f.b 3 2 p U ;.;.h.P.U.Q.c.a.r.1.S.B.` ` ( h ( ` ( r ",
"N.) g D.~.~.U.[ x y p I a.e.h.P.P.d.a.U.1.a T.B.' _ _ ) _ _ ( g ",
"N._ w P.~.~.Q.f.Q R Z ;.h.f.S.P.J.a.g.~.A $ S.B.` ` ( ( ` ` / g ",
"N._ g S.~.~.Q.s.q.:.0.w.a.g.P.g.d.P.Q.W.A 4 S.B.` / f f ^ _ ( g ",
"N._ r D.~.~.Q.c.u.d.W.P.J.I.J.z.Z.J./.W.w.Q [ N.) f L K f ( ( g ",
"N._ r R.~.~.Y.J.z.z.~.K.c.c.z.l.c.J.Q.Q.g.W S N._ M F.L f ( ( r ",
"B._ r E.~.~.~.J.i.k.H.9.j.k.j.3.j.j.I.I.r.D o.B.` ( n j / ` ( r ",
"M._ r U.~.~.~.K.u.,.,.%.%.>.3.,.%.2.j.k.o.1 >.M.` _ ( ( _ _ ( r ",
"M._ r U.~.~.Q.g.#.G N | @.%.,.5.%.$.>.i.J X J B.` _ ( ( _ _ ( r ",
"N.) r J.~.~.I.a.! 7 5 G ..o.>.<.<.>.$.<.&.1 $.M.` / f f / ` ( r ",
"N._ g S.Q.~.I.:.i @ < y E X.o.3.9.<.3.<.<.&.5.N._ f L L f ( ( w ",
"N._ g H.I.Q.a.m * + = V E X.r.<.<.3.j.9.3.9.9.M._ c F.L f ) _ w ",
"M.) w d.K.L.#.t + = o & Q ;.r.i.i.9.9.9.3.3.3.M.` / n j / ` ( r ",
"N.) r d.K.p.E - o y O O Q 1.r.s.j.3.j.j.j.j.5.M.` _ ( ( _ _ ( r ",
"N._ w 8.G.8.C o o C # 3 ! -.i.g.j.9.l.l.z.l.j.M.` _ ) ) _ _ ) r ",
"N._ g b.L.9.N o * G 3 = | 2.7.z.z.l.l.z.z.l.9.N.` / u u / _ ) r ",
"N._ r d.).Z.R % 2  .i @ F 8.i.z.k.l.k.z.l.k.k.N._ i d s u ) ( r ",
"N._ g 4.Z.`._.> i  .N 7 F 7.8.z.k.9.9.9.9.5.8.b._ n J.d u ) ) r ",
"N.` / m =.6.4.= 6 H F B F %.,.=.5.,.,.,.*.,.b.` _ ( n k ^ _ ( r ",
"N.' _ / j j j g g h g h h l k h k h c k k c _ ` _ _ ( ( _ _ ( r ",
"N.' ' ` _ _ _ _ _ _ ) _ _ _ ` ) ) ) ) _ _ _ ` ' ` ` ` ` ` ` _ l ",
"V.N.N.N.N.N.N.N.N.N.N.N.N.N.N.N.N.N.N.N.N.N.N.N.N.N.N.N.N.B.N.m."
};
