/* XPM */
static char *_b2a262bc9a94bb38e4f211941ff2f77[] = {
/* columns rows colors chars-per-pixel */
"32 32 5 1 ",
"  c gray13",
". c gray26",
"X c gray46",
"o c #FFD740",
"O c gray62",
/* pixels */
".OO oo..XXX.X.   .X.XXXX.. ooOO.",
".OO  o.X.XXX..   ..XXXX.X.  oOO.",
".OO   ..XXX.X.   .X.XXXX..   OO.",
".OO   .X.XXX..   ..XXXX.X.   OO.",
".OOo  ..XXX.X.   .X.XXXX..o  OO.",
".OOoo .X.XXX..   ..XXXX.X.oo OO.",
".OOooo..XXX.X.   .X.XXXX..oooOO.",
".OO oo.X.XXX..   ..XXXX.X. ooOO.",
".OO  o..XXX.X.   .X.XXXX..  oOO.",
".OO   .X.XXX..   ..XXXX.X.   OO.",
".OO   ..XXX.X.   .X.XXXX..   OO.",
".OOo  .X.XXX..   ..XXXX.X.o  OO.",
".OOoo ..XXX.X.   .X.XXXX..oo OO.",
".OOooo.X.XXX..   ..XXXX.X.oooOO.",
".OO oo..XXX.X.   .X.XXXX.. ooOO.",
".OO  o.X.XXX..   ..XXXX.X.  oOO.",
".OO   ..XXX.X.   .X.XXXX..   OO.",
".OO   .X.XXX..   ..XXXX.X.   OO.",
".OOo  ..XXX.X.   .X.XXXX..o  OO.",
".OOoo .X.XXX..   ..XXXX.X.oo OO.",
".OOooo..XXX.X.   .X.XXXX..oooOO.",
".OO oo.X.XXX..   ..XXXX.X. ooOO.",
".OO  o..XXX.X.   .X.XXXX..  oOO.",
".OO   .X.XXX..   ..XXXX.X.   OO.",
".OO   ..XXX.X.   .X.XXXX..   OO.",
".OOo  .X.XXX..   ..XXXX.X.o  OO.",
".OOoo ..XXX.X.   .X.XXXX..oo OO.",
".OOooo.X.XXX..   ..XXXX.X.oooOO.",
".OO oo..XXX.X.   .X.XXXX.. ooOO.",
".OO  o.X.XXX..   ..XXXX.X.  oOO.",
".OO   ..XXX.X.   .X.XXXX..   OO.",
".OO   .X.XXX..   ..XXXX.X.   OO."
};
