/* XPM */
static char *_4452c508e864538ac190416d8c3343b[] = {
/* columns rows colors chars-per-pixel */
"32 32 256 2 ",
"   c #0A0000",
".  c #1C0002",
"X  c #170000",
"o  c #250000",
"O  c #2B0000",
"+  c #3A0000",
"@  c #410000",
"#  c #564D12",
"$  c #6C521B",
"%  c #5D6A1F",
"&  c #716615",
"*  c #4B4A39",
"=  c #5A5534",
"-  c #504F2E",
";  c #6A4629",
":  c #775624",
">  c #685A2F",
",  c #426930",
"<  c #5F733A",
"1  c #53723C",
"2  c #697529",
"3  c #716C2E",
"4  c #564B46",
"5  c #585651",
"6  c #5A5046",
"7  c #62564B",
"8  c #685C55",
"9  c #587C46",
"0  c #5D6C46",
"q  c #706953",
"w  c #6C6569",
"e  c #736969",
"r  c #797467",
"t  c #716C74",
"y  c #7C767C",
"u  c #6D7069",
"i  c #965713",
"p  c #A75906",
"a  c #A75A14",
"s  c #B05916",
"d  c #916D1A",
"f  c #BA6A09",
"g  c #B6671B",
"h  c #A37A18",
"j  c #B16E0F",
"k  c #935730",
"l  c #B55C24",
"z  c #896A2B",
"x  c #946B37",
"c  c #8D733D",
"v  c #99773A",
"b  c #936D2E",
"n  c #A5672A",
"m  c #A8772B",
"M  c #B67626",
"N  c #B37135",
"B  c #C97906",
"V  c #C47818",
"C  c #D37C0B",
"Z  c #C77524",
"A  c #D47B2D",
"S  c #C9783D",
"D  c #89744B",
"F  c #9A7643",
"G  c #8D6F4B",
"H  c #A26F45",
"J  c #A57D46",
"K  c #B37945",
"L  c #BA785C",
"P  c #B36D4E",
"I  c #837668",
"U  c #927C6B",
"Y  c #857B79",
"T  c #947970",
"R  c #B57764",
"E  c #AD796A",
"W  c #C87555",
"Q  c #CD6F4F",
"!  c #E1795C",
"~  c #D67B66",
"^  c #C47974",
"/  c #D77879",
"(  c #CA7F60",
")  c #E47C68",
"_  c #F37C6E",
"`  c #E87C79",
"'  c #F57D79",
"]  c #4D833C",
"[  c #728137",
"{  c #558844",
"}  c #6A9852",
"|  c #749050",
" . c #69A653",
".. c #719862",
"X. c #77AD66",
"o. c #B08B1C",
"O. c #988B38",
"+. c #B38827",
"@. c #B69728",
"#. c #AB8938",
"$. c #AE8F30",
"%. c #BAA128",
"&. c #CA891C",
"*. c #D78C18",
"=. c #D6951D",
"-. c #CC890F",
";. c #F49C1B",
":. c #E9931A",
">. c #C68924",
",. c #D78A2E",
"<. c #C89627",
"1. c #DB952C",
"2. c #C58739",
"3. c #D7863A",
"4. c #C69638",
"5. c #D69737",
"6. c #E28D28",
"7. c #E89628",
"8. c #F29B28",
"9. c #E69836",
"0. c #F19A32",
"q. c #E08F34",
"w. c #D2A62F",
"e. c #EAA32C",
"r. c #988957",
"t. c #90965C",
"y. c #AC8446",
"u. c #BB884A",
"i. c #A8885A",
"p. c #AF9B54",
"a. c #B89750",
"s. c #B7AC50",
"d. c #8A8369",
"f. c #99877A",
"g. c #9C9377",
"h. c #8F8F6E",
"j. c #A79777",
"k. c #B4906B",
"l. c #99A57B",
"z. c #8FAA70",
"x. c #B0AF76",
"c. c #88AA5D",
"v. c #D98B48",
"b. c #CE9747",
"n. c #D1904F",
"m. c #E39946",
"M. c #E98E5A",
"N. c #D1B154",
"B. c #CB8669",
"V. c #D4966B",
"C. c #C68778",
"Z. c #D98A7A",
"A. c #C6957A",
"S. c #D79074",
"D. c #E48368",
"F. c #E8877B",
"G. c #ED8D77",
"H. c #C1B76A",
"J. c #D2A561",
"K. c #E8A873",
"L. c #E9BB59",
"P. c #BDC175",
"I. c #EBCD54",
"U. c #DDC86E",
"Y. c #D8C77A",
"T. c #D8D573",
"R. c #CCC06A",
"E. c #E6D873",
"W. c #EAD36C",
"Q. c #FBE668",
"!. c #FBE877",
"~. c #FEF578",
"^. c #FFF06A",
"/. c #857B85",
"(. c #DC7F8E",
"). c #C67A86",
"_. c #E97B88",
"`. c #F27C88",
"'. c #8B8486",
"]. c #928A83",
"[. c #978988",
"{. c #95978E",
"}. c #A29285",
"|. c #A79996",
" X c #96BE89",
".X c #B5A889",
"XX c #A6A296",
"oX c #B8B398",
"OX c #B3B088",
"+X c #BCB5B6",
"@X c #B1B6A9",
"#X c #CA8581",
"$X c #D48485",
"%X c #DB8787",
"&X c #C69984",
"*X c #D79187",
"=X c #D98B95",
"-X c #D59698",
";X c #C09D99",
":X c #EC8382",
">X c #E78888",
",X c #F58685",
"<X c #E6948E",
"1X c #E78894",
"2X c #F58994",
"3X c #E89797",
"4X c #F59A97",
"5X c #C4B789",
"6X c #C8B897",
"7X c #C6AF8D",
"8X c #F0A585",
"9X c #DC98A2",
"0X c #E198A3",
"qX c #C2B9B3",
"wX c #D0BAAF",
"eX c #EEACAC",
"rX c #9FC481",
"tX c #AACC8F",
"yX c #BBCFAC",
"uX c #D2C995",
"iX c #CEC790",
"pX c #F8E987",
"aX c #FAF484",
"sX c #EBE588",
"dX c #C8C5BB",
"fX c #D5CEA8",
"gX c #F2DAB6",
"hX c #E7D5AE",
"jX c #F7E7BC",
"kX c #E6D786",
"lX c #B5BDC0",
"zX c #C8BFC2",
"xX c #C7CACA",
"cX c #D2D3CB",
"vX c #FAC4C9",
"bX c #EBD4CF",
"nX c #DEE0DB",
"mX c #F7EBCD",
"MX c #E8EAD5",
"NX c #FFE4D7",
"BX c #F7F7DA",
"VX c #FEF4C9",
"CX c #FFDAE5",
"ZX c #E8E8E8",
"AX c #F5ECEC",
"SX c #FFE7E3",
"DX c #FFFEE3",
"FX c #FDF6EC",
"GX c #FFFCED",
"HX c #F6F3ED",
"JX c #FFEEF9",
"KX c #FDFCF3",
"LX c #F6FDFB",
"PX c #FDFDFC",
"IX c #FAF6F4",
"UX c #EEECF1",
/* pixels */
"  . @ 1X_._.4X_.>XF.*X*X%X*X*XZ.F.Z.Z.>X,X,XF.G._ _ ' ~ / + X   ",
". . 9X1X(.1X=X$XS.V.A.A.&XC.A.S.B.V.S.B.B.~ D.( ~ ) ! Q W L o X ",
"+ =X).9XvXNXNXhX7Xg.t.z.t.t.r.r.t.i.k.y.n k x v k n l 3.v.N x O ",
"1X%X0XCXJXFXmXfX| | { c.| 2 % % 2 2 & : k K i.r.r.b M 9.q.a n u.",
"_.1XvXJXJXGXwXr < < < [ & & # O.N.s.d d d v .XoX6X5X2.Z V f a S ",
"` 1XCXJXKXGX@X- - - $ O.@.h $.E.aXW.h h b.u.q j.OXk.i &.8.8.,.p ",
":X3XCXUXnXcXd.5 7 - > y.w.<.@.I.!.N.%.%.<.4.d z z #.f :.*.*.q.p ",
">X3XvX[.7 7 8 e e 7 ; y.b.4.d s.T.E.Q.Q.I.<.$.d +.b.f C C -.f p ",
"_.0X;X* > = r w t w 4 U hXhXgXhXiXP.T.~.^.I.>.5.h M V :.:.8.>.p ",
"2X1XT # 3 D r '.t t 4 f.FXKXPXGXBXVXP.T.~.^.&.9.M b.,.9.8.8.9.j ",
"` >XR ; v c r './.y 4 u FXGXPXIXGXDXVXH.E.^.w.1.S N M q.0.q.3.i ",
":XF.E c v v U [.'.Y 5 ].PXLXLXPXKXGXDXuXE.Q.=.1.S u.J.u.Z A l Q ",
"2X<X&Xi.J F U |.Y Y 4 +XPXIXLXLXLXLXDXuXkX!.*.9.S K.S.B.K.! ~ D.",
">X<XwXg.i.z q }./.4 e AXPXLXPXLXZX@XKX6XH.I.*.0.v.K L R Z.W :XG.",
"%X9XzX@Xj.D 7 e 8 ].MXAXPXIXUXPXcXf.bX5Xa.@.=.8.q.M.K.^ 3X^ ` ,X",
"=X-XxXxX.XD q * XXwXdX+X+X+XqX+XqXqXqX6XiXh 8.;.7.m.G.).eX(.' G.",
"%X-XxXdXg.G 6 0 {.xXHXAXZXUXUXAXnXXXbX5XJ.m =.8.9.b.( 3X$X^ ` ' ",
":X-XwX].i.c q 8 5 5 qXIXPXPXPXLXnXXXMXiXa.L.*.7.<.b.8XB.4X~ _ _ ",
"_.<X&Xi.K v q u w 5 7 bXIXPXIXKXPXHXKXfXkXQ.&.e.>.u.B.B.8XQ ! D.",
"1X<Xk.c m J I Y w w 4 XXPXIXPXKXFXGXDXfXsX~.&.=.+.K.J.W S S M.M.",
">X1XH : x x I /./.w * t LXPXPXIXGXGXBXP.sX!.w.&.J.J.N M Z A l l ",
"1X3XE ; c F I /./.y 4 Y GXGXKXFXDXVX5XiXaXQ.<.1.J.n.M 6.6.0.A s ",
"`.4XeX; $ 3 d.f./.Y = D gXjXmXgXhXH.R.pX~.I.<.,.L.M.V 0.;.8.6.p ",
"`.2XCX}.= - r |.Y I - c y.u.F p.R.E.~.~.Q.%.+.m H K g 6.;.;.C p ",
"' 4XSXBX X} 0 '.r * $ #.b.5.$.U.pXR.%.w.%.$.b : c i.m B B B f p ",
"' >XBXMXtXz.0 , * - # O.4.@.O.T.pXU.4.h a.p.% f.oXi.n 5.*.*.q.p ",
"_.3XNXMXtXX.{ , , 1 < [ 2 & & s.T.s.m z 3 d.{.@XdXfXn >.7.8.A p ",
"_.C.vXmXrXX.} 9 , 1 { } [ 2 % % 2 3 & : q XXlXxXdXx.N >.V g g l ",
"1X$X-XgXtX . . .} ] ] .... XyXtXrXz.l.5XoXxXqXoXk.y.M m.q.a k L ",
"+ #X*X&XOXx.c. .| | ..z...z.z.l.l.x.d.g.f.T U G F n a 3.v.P k o ",
"O O =X$XZ.C.#X&XA.A.A.A.&X&XC.C.C.*XC.C.#X#XC.$XZ.) ! Q P R o X ",
"X O + 3X>X(.=X%X%XZ.Z.S.Z.$XF.F.F.:X>X%X>X2X>X:X`.,XG.` %X+ .   "
};
