/* XPM */
static char *_6611a74a2124a2aad077dd9c80508dc[] = {
/* columns rows colors chars-per-pixel */
"32 64 7 1 ",
"  c black",
". c #F44336",
"X c #FFEB3B",
"o c #03A9F4",
"O c gray62",
"+ c gray100",
"@ c None",
/* pixels */
"@O.. ..OOOOOOOOOOOOOOOOOOOOOOOO@",
"OO.. ..OOOOOOOOOOOOOOOOOOOOOOOOO",
"OO.. ..OOOOOOOOOOOOOOOOOOOOOOOOO",
"OO.. ..OOOOOOOOOOOOOOOOOOOOOOOOO",
"OO.. ..OOOOOXXXXXXXXXXXXXXXXXOOO",
"OO.. ..OOOOOXOOOOOOOOOOOOOOOXOOO",
"OO.. ..OOOOOXOO+++++++++++OOXOOO",
"OO.. ..OOOOOXOO+++++++++++OOXOOO",
"OO.. ..OOOOOXOO+++++++++++OOXOOO",
"OO.. ..OOOOOXOO+++++++++++OOXOOO",
"OO.. ..OOOOOXOO+++++++++++OOXOOO",
"OO.. ..OOOOOXOO+++++++++++OOXOOO",
"OO.. ..OOOOOXOO+++++++++++OOXOOO",
"OO.. ..OOOOOXOOOOOOOOOOOOOOOXOOO",
"OO.. ..OOOOOXOOOOOOOOOOOOOOOXOOO",
"OO.. ..OOOOOXOOOOOOOOOOOOOOOXOOO",
"OO.. ..OOOOOXOOOOOOOOOOOOOOOXOOO",
"OO.. ..OOOOOXOOOoOOOoOOOoOOOXOOO",
"OO.. ..OOOOOXOOOoOOOoOOOoOOOXOOO",
"OO.. ..OOOOOXOOOoOOOoOOOoOOOXOOO",
"OO.. ..OOOOOXOOOoOOOoOOOoOOOXOOO",
"OO.. ..OOOOOXOOOoOOOoOOOoOOOXOOO",
"OO.. ..OOOOOXOOOoOOOoOOOoOOOXOOO",
"OO.. ..OOOOOXOOOoOOOoOOOoOOOXOOO",
"OO.. ..OOOOOXOOOoOOOoOOOoOOOXOOO",
"OO.. ..OOOOOXOOOoOOOoOOOoOOOXOOO",
"OO.. ..OOOOOXOOOoOOOoOOOoOOOXOOO",
"OO.. ..OOOOOXOOOOOOOOOOOOOOOXOOO",
"OO.. ..OOOOOXOOOOOOOOOOOOOOOXOOO",
"OO.. ..OOOOOXOOOOOOOOOOOOOOOXOOO",
"OO.. ..OOOOOXXXXXXXXXXXXXXXXXOOO",
"OO.. ..OOOOOOOOOOOOOOOOOOOOOOOOO",
"OO.. ..OOOOOOOOOOOOOOOOOOOOOOOOO",
"OO.. ..OOOOOOOOOOOOOOOOOOOOOOOOO",
"OO.. ..OOOOOOOOOOOOOOOOOOOOOOOOO",
"OO.. ..OOOOOOOOOOOOOOOOOOOOOOOOO",
"OO.. ..OOOOOOOOOOOOOOOOOOOOOOOOO",
"OO.. ..OOOOOOOOOOOOOOOOOOOOOOOOO",
"OO.. ..OOOOOOOOOOOOOOOOOOO OOOOO",
"OO.. ..OOOOOOOOOOOOOOOOOOO OOOOO",
"OO.. ..OOOOOOO OOOOOOOOOOO OOOOO",
"OO.. ..OOOOOOO OOOOOOOOOO  OOOOO",
"OO.. ..OOOOOOO OOOOOOOOO  OOOOOO",
"OO.. ..OOOOOOO OOOOOOOO  OOOOOOO",
"OO.. ..OOOOOOO  OOOOOOO OOOOOOOO",
"OO.. ..OOOOOOOO   OOOOO OOOOOOOO",
"OO.. ..OOOOOOOOOO  OOOO OOOOOOOO",
"OO.. ..OOOOOOOOOOO OOOOOOOOOOOOO",
"OO.. ..OOOOOOOOOOO OOOOOOOOOOOOO",
"OO.. ..OOOOOOOOOOO OOOOOO OOOOOO",
"OO.. ..OOOOOOOOOOO OOOOOO OOOOOO",
"OO.. ..OOOOOOOOOOO OOOOOO OOOOOO",
"OO.. ..OOOOOOOOOOOOOOOOOO OOOOOO",
"OO.. ..OOOOOOOO  OOOOOOO  OOOOOO",
"OO.. ..OOOOOOOO OOOOOO   OOOOOOO",
"OO.. ..OOOOOOOO OOOOOO OOOOOOOOO",
"OO.. ..OOOOOOOO OOOOO OOOOOOOOOO",
"OO.. ..OOOOOOO  OOOOO OOOOOOOOOO",
"OO.. ..OOOOOO  OOOOOO OOOOOOOOOO",
"OO.. ..OOOOO  OOOOOOO OOOOOOOOOO",
"OO.. ..OOOOO OOOOOOOO OOOOOOOOOO",
"OO.. ..OOOOO OOOOOOOOOOOOOOOOOOO",
"OO.. ..OOOOO OOOOOOOOOOOOOOOOOOO",
"@O.. ..OOOOOOOOOOOOOOOOOOOOOOOO@"
};
