/* XPM */
static char *_536900042342[] = {
/* columns rows colors chars-per-pixel */
"32 32 40 1 ",
"  c #D5D1AC",
". c #D1CDA8",
"X c #D0CCA7",
"o c #CBC7A4",
"O c #BBB792",
"+ c #B8B48F",
"@ c #B7B38F",
"# c #B2AE8B",
"$ c #B1AE8A",
"% c #AEAA87",
"& c #8D8A70",
"* c #B4B08B",
"= c #A8A583",
"- c #ADA986",
"; c #838068",
": c #87846B",
"> c #848169",
", c #8F8C72",
"< c #807D66",
"1 c #AEAC88",
"2 c #BFBC9A",
"3 c #8E8B73",
"4 c #C8C4A1",
"5 c #918E75",
"6 c #FFEC38",
"7 c #AFAB88",
"8 c #B5B18C",
"9 c #B3AF8A",
"0 c #B0AC88",
"q c #B0AC89",
"w c #B7B38E",
"e c #ADAA86",
"r c #B9B590",
"t c #8E8B70",
"y c #B1AD8A",
"u c #B2AE8A",
"i c #A9A583",
"p c #A8A483",
"a c #7E7B65",
"s c white",
/* pixels */
" .............................Xo",
".O+@#$$$$$$$$$$$$$$$$#%%%%%%%%#&",
".+@@@@@@@@@@@@@@@@@@@@@@**%=%*-;",
".@@@@@@@@@@@@@@@@@@@@@@@**=:=*%>",
".#@@@@@@@@@@@@@@@@@@@@@@@@,<,1%>",
".$@@@<<<<<<<<<<<<<<<<<<<<@2321%>",
".$@@@@@@@@@@@@@@@@@@@@@@@@454*%>",
".$@@@<<<<<<<<<<<<<<<<<<<<@232*%>",
".$@@@@@@@@@@@@@@@@@@@@@@@@,<,*%>",
".$@@@<<<<<<<<<<<<<@6@@@@@@232*%>",
".$@@@@@@@@@@@@@@@@@6@@@@@@4547%>",
".$@@@<<<<<<<<<<<<<@666666@2327%>",
".$@@@@@@@@@@@@@@@@@6@@@@@@,<,*%>",
".$@@@@@@@@@@@@@@@@@6@@@@@@232*%>",
".$@@@@@@@@@@@@@@@@@@@@@@@@454*%>",
".$@@@@@@@@@@@@@@@@@6@@@@@@232*%>",
".$@@@@@@@@@@@@@@@@@6@@@@@@,<,7%>",
".$@@@@@@@@@@@@@@@@@6@6@@@@2327%>",
".$@@@@@@@@@@@@@@@@@666666@454*%>",
".$@@@@@@@@@@@@@@@@@@@@@@@@232*%>",
".$@@@@@@@@@@@@@@@@@6@@@@6*232*%>",
".$@@@@@@@@@@@@@@@@@6@@@@6*4548%>",
".$@@@@@@@@@@@@@@@@@6@6@@69232*%>",
".$@@@@@@@@@@@@@@@@@6666660,<,q%>",
".$@@@@@@@@@@@@@@@@@@@@@@@w232we>",
".$@@@@@@@@@@@@@@@@@@@@@@6+454re>",
".$@@@@@@@@@@@@@@@@@@@@@@6w232we>",
".#@@@@@@@@@@@@@@@@@@@@@@60,<,q%>",
".@@@@@@@@@@@@@@@@@@666666*=:=*%>",
".+@@@@@@@@@@@@@@@@@@@@@@*87t78%>",
"X#-%yu$$$$$$$$$$$$$$uy%%%%-i-%p;",
"o&;>;;;;;;;;;;;;;;;;;;>>>>>>>>;a"
};
