/* XPM */
static char *_0cf1ab4e47f4ca486ae71224f17b65e[] = {
/* columns rows colors chars-per-pixel */
"32 32 5 1 ",
"  c gray13",
". c gray26",
"X c gray38",
"o c #D50000",
"O c gray62",
/* pixels */
".OO   .X.XX.X.   .X.XXX.X.   OO.",
".OO   ..XXXX..   ..XXXXX..   OO.",
".OO   .X.XX.X.   .X.XXX.X.   OO.",
".OO   ..XXXX..   ..XXXXX..   OO.",
".OO   .X.XX.X.   .X.XXX.X.   OO.",
".OO   ..XXXX..   ..XXXXX..   OO.",
".OO   .X.XX.X.   .X.XXX.X.   OO.",
".OO   ..XXXX..   ..XXXXX..   OO.",
".OO   .X.XX.X.   .X.XXX.X.   OO.",
".OO   ..XXXX..   ..XXXXX..   OO.",
".OO   .X.XX.X.   .X.XXX.X.   OO.",
".OO   ..XXXX.. o ..XXXXX..   OO.",
".OO   .X.XX.X. X .X.XXX.X.   OO.",
".OO   ..XXXX.. o ..XXXXX..   OO.",
".OO   .X.XX.X. X .X.XXX.X.   OO.",
".OO   ..XXXX.. o ..XXXXX..   OO.",
".OO   .X.XX.X. X .X.XXX.X.   OO.",
".OO   ..XXXX.. o ..XXXXX..   OO.",
".OO   .X.XX.X. X .X.XXX.X.   OO.",
".OO   ..XXXX.. o ..XXXXX..   OO.",
".OO   .X.XX.X.   .X.XXX.X.   OO.",
".OO   ..XXXX..   ..XXXXX..   OO.",
".OO   .X.XX.X.   .X.XXX.X.   OO.",
".OO   ..XXXX..   ..XXXXX..   OO.",
".OO   .X.XX.X.   .X.XXX.X.   OO.",
".OO   ..XXXX..   ..XXXXX..   OO.",
".OO   .X.XX.X.   .X.XXX.X.   OO.",
".OO   ..XXXX..   ..XXXXX..   OO.",
".OO   .X.XX.X.   .X.XXX.X.   OO.",
".OO   ..XXXX..   ..XXXXX..   OO.",
".OO   .X.XX.X.   .X.XXX.X.   OO.",
".OO   ..XXXX..   ..XXXXX..   OO."
};
