/* XPM */
static char *_536900052155[] = {
/* columns rows colors chars-per-pixel */
"32 32 41 1 ",
"  c #D4D0AB",
". c #D0CCA7",
"X c #CFCBA6",
"o c #CAC6A3",
"O c #BAB691",
"+ c #B7B38E",
"@ c #B6B28E",
"# c #B1AD8A",
"$ c #B0AD89",
"% c #ADA986",
"& c #8C8970",
"* c #B3AF8A",
"= c #A7A482",
"- c #ACA885",
"; c #827F68",
": c #86836B",
"> c #838069",
", c #B71C1C",
"< c #FFEB3B",
"1 c #8E8B71",
"2 c #7F7C66",
"3 c #ADAB87",
"4 c #BEBB99",
"5 c #8D8A72",
"6 c #C7C3A0",
"7 c #908D74",
"8 c #AEAA87",
"9 c #B4B08B",
"0 c #B2AE89",
"q c #AFAB87",
"w c #AFAB88",
"e c #B6B28D",
"r c #ACA985",
"t c #B8B48F",
"y c #8D8A70",
"u c #B0AC89",
"i c #B1AD89",
"p c #A8A482",
"a c #A7A382",
"s c #7D7A65",
"d c white",
/* pixels */
" .............................Xo",
".O+@#$$$$$$$$$$$$$$$$#%%%%%%%%#&",
".+@@@@@@@@@@@@@@@@@@@@@@**%=%*-;",
".@@@@@@@@@@@@@@@@@@@@@@@**=:=*%>",
".#@@,,,,,,,,,,,@@@@<<<<<<@1213%>",
".$@@,,,,,,,,,,,,@@@<@@<@@@4543%>",
".$@@@@@@@@@@@,,,@@@<@@<@@@676*%>",
".$@@@@@@@@@@@@,,@@@@<<@<<@454*%>",
".$@@@@@@@@@@@@,,@@@@@@@@@@121*%>",
".$@@@@@@@@@@@@,,@@@<<<<<<@454*%>",
".$@@@@@@@@@@@@,,@@@@@@@@@@6768%>",
".$@@@@@@@@@@@@,,@@@@<<<<@@4548%>",
".$@@@@@@@@@@@@,,@@@<@@@@<@121*%>",
".$@@@@@@@@@@@@,,@@@<@@<@<@454*%>",
".$@@@@@@@@@@@@,,@@@@<@<<@@676*%>",
".$@@@@@@@@@@@@,,@@@@@@@@@@454*%>",
".$@@@@@@@@@@@@,,@@@<<<<<<@1218%>",
".$@@@@@@@@@@@@,,@@@@@@<@@@4548%>",
".$@@@@@@@@@@@@,,@@@@@@<@+@676*%>",
".$@@@@@@@@@@@@,,@@@<<<<<<@454*%>",
".$@@@@@@@@@@@@,,@@@@@@@@+*454*%>",
".$@@@@@@@@@@@@,,@@@<@@@@+*6769%>",
".$@@@@@@@@@@@@,,@@@<@@@@+0454*%>",
".$@@@@@@@@@@@@,,@@@<<<<<<q121w%>",
".$@@@@@@@@@@@@,,,@@<@@@@@e454er>",
".$@@@@@@@@@@@@,,,@@<@@@@++676tr>",
".$@@@@@@@@@@@@@,,,,@@@@@@e454er>",
".#@@@@@@@@@@@@@,,,,,,,,,,q121w%>",
".@@@@@@@@@@@@@@@@,,,,,,,,*=:=*%>",
".+@@@@@@@@@@@@@@@@@@@@@@*98y89%>",
"X#-%ui$$$$$$$$$$$$$$iu%%%%-p-%a;",
"o&;>;;;;;;;;;;;;;;;;;;>>>>>>>>;s"
};
