/* XPM */
static char *_9a100d147f247e6fff22e5ebf250793[] = {
/* columns rows colors chars-per-pixel */
"32 32 256 2 ",
"   c #3C3229",
".  c #593F2E",
"X  c #4F3E37",
"o  c #523E33",
"O  c #6F3720",
"+  c #4F4138",
"@  c #554332",
"#  c #564936",
"$  c #594537",
"%  c #604E38",
"&  c #734A38",
"*  c #67533A",
"=  c #6F5839",
"-  c #6B523C",
";  c #79523A",
":  c #594F46",
">  c #7C4C42",
",  c #605043",
"<  c #62514A",
"1  c #665949",
"2  c #6A5945",
"3  c #715643",
"4  c #7D5846",
"5  c #745749",
"6  c #735A4C",
"7  c #785D4A",
"8  c #6A5952",
"9  c #7C6054",
"0  c #7E6C5B",
"q  c #7E6B64",
"w  c #8C614E",
"e  c #9F654F",
"r  c #816456",
"t  c #896557",
"y  c #876C57",
"u  c #836759",
"i  c #8C635D",
"p  c #9B6953",
"a  c #917754",
"s  c #9E7257",
"d  c #92775A",
"f  c #98755F",
"g  c #AC665E",
"h  c #A46A54",
"j  c #A67459",
"k  c #A1785A",
"l  c #846F69",
"z  c #8A6E63",
"x  c #906B62",
"c  c #8B7067",
"v  c #89776C",
"b  c #837363",
"n  c #907564",
"m  c #9B7564",
"M  c #997D67",
"N  c #95736A",
"B  c #917F73",
"V  c #B46D6B",
"C  c #B36D61",
"Z  c #B47563",
"A  c #BF787C",
"S  c #B97375",
"D  c #9D806E",
"F  c #978472",
"G  c #9D8174",
"H  c #92817A",
"J  c #9A8479",
"K  c #AE8164",
"L  c #A3866A",
"P  c #AB8369",
"I  c #B38669",
"U  c #AC946E",
"Y  c #BA926E",
"T  c #A28774",
"R  c #AC8171",
"E  c #AB8975",
"W  c #A5877D",
"Q  c #AC867B",
"!  c #B08076",
"~  c #BA8E75",
"^  c #BD8E7B",
"/  c #BF9275",
"(  c #BF9877",
")  c #BA927C",
"_  c #B89877",
"`  c #BFA27D",
"'  c #C6887B",
"]  c #CE8C7E",
"[  c #C3847B",
"{  c #C5947E",
"}  c #CB927D",
"|  c #C79B78",
" . c #C5A47D",
".. c #C27D82",
"X. c #9B8780",
"o. c #9D8B83",
"O. c #A08C83",
"+. c #AE8C84",
"@. c #AC8F89",
"#. c #A79486",
"$. c #AE9183",
"%. c #AC938C",
"&. c #B49383",
"*. c #BB9384",
"=. c #BF9984",
"-. c #B4938C",
";. c #BA938A",
":. c #B19E8F",
">. c #BC9B8A",
",. c #B79C94",
"<. c #BE9C93",
"1. c #BC9A98",
"2. c #BFA980",
"3. c #B9A48F",
"4. c #BAB385",
"5. c #BDA39C",
"6. c #BFA99C",
"7. c #B9A493",
"8. c #C38A86",
"9. c #CC8B84",
"0. c #C5878A",
"q. c #C09686",
"w. c #C39D84",
"e. c #CA9A84",
"r. c #C2938D",
"t. c #C39D8C",
"y. c #CA9D8C",
"u. c #D49A8E",
"i. c #C49490",
"p. c #CE9697",
"a. c #C59D96",
"s. c #CE9D98",
"d. c #C29C99",
"f. c #D99995",
"g. c #C4A481",
"h. c #CAA583",
"j. c #CCAA85",
"k. c #C2A18C",
"l. c #CDA38C",
"z. c #C8AE89",
"x. c #D2A187",
"c. c #D1AA86",
"v. c #D3A58C",
"b. c #D8A28A",
"n. c #D5AC8B",
"m. c #D9AD8E",
"M. c #C5B085",
"N. c #CFB48C",
"B. c #D5B28C",
"V. c #D9B28E",
"C. c #CCA594",
"Z. c #C4AF92",
"A. c #CAA996",
"S. c #C4A79A",
"D. c #CAA29A",
"F. c #CBAC9E",
"G. c #C3A895",
"H. c #D4A792",
"J. c #D5AC92",
"K. c #DAAD94",
"L. c #D1A69C",
"P. c #D4AD9C",
"I. c #DDAF9A",
"U. c #DCA29E",
"Y. c #C6B297",
"T. c #CDBE95",
"R. c #C7B39A",
"E. c #CAB49D",
"W. c #CDB99E",
"Q. c #D5B194",
"!. c #DBB394",
"~. c #D7BB93",
"^. c #DBBB96",
"/. c #D7B39F",
"(. c #DCB39B",
"). c #DDBA9A",
"_. c #E0AC94",
"`. c #E2B39D",
"'. c #DE9DA2",
"]. c #C3A5A0",
"[. c #C6ACA2",
"{. c #CCADA3",
"}. c #C6AEAA",
"|. c #CBADAB",
" X c #DCA4A3",
".X c #D3ADA3",
"XX c #DCACA3",
"oX c #DEA6A9",
"OX c #CCB2A3",
"+X c #CCB9A3",
"@X c #C7B0AA",
"#X c #CBB3AB",
"$X c #CDBAAB",
"%X c #D3B4A5",
"&X c #DCB4A3",
"*X c #D4BBA4",
"=X c #DBBAA5",
"-X c #D4B4A9",
";X c #DBB5A8",
":X c #D4BCAB",
">X c #DBBCAB",
",X c #D4BAB3",
"<X c #DCBDB3",
"1X c #DABCB9",
"2X c #E1A3A8",
"3X c #E2B5A3",
"4X c #E2BBA4",
"5X c #E4B4A8",
"6X c #E3BBAB",
"7X c #E2BDB3",
"8X c #E3BFB9",
"9X c #E2B4B4",
"0X c #BEC18C",
"qX c #CDCD97",
"wX c #D9C097",
"eX c #DAC49D",
"rX c #D3D49B",
"tX c #E1C39D",
"yX c #D5C2AA",
"uX c #DBC3AD",
"iX c #DFD7A9",
"pX c #D4C1B3",
"aX c #DEC4B3",
"sX c #DEC9B4",
"dX c #DDC3BB",
"fX c #DECDBC",
"gX c #E3C1A6",
"hX c #E4C1AC",
"jX c #ECD3AB",
"kX c #E4D2AC",
"lX c #E3C4B4",
"zX c #EBC6B6",
"xX c #E2CAB4",
"cX c #E4C5BB",
"vX c #E9C6BB",
"bX c #E4CABC",
"nX c #E9CBBD",
"mX c #E7D8B1",
"MX c #E5D0BF",
"NX c #E3E3B1",
"BX c #E8E7B7",
"VX c #E6E1B9",
"CX c #EEE0BB",
"ZX c #EBE9BE",
"AX c #DBC7C0",
"SX c #E0C7C0",
"DX c #E5CBC1",
"FX c #E9CDC3",
"GX c #E3CFC8",
"HX c #E5D3C3",
"JX c #EBD1C6",
"KX c #E7D0C8",
"LX c #E9D3CB",
"PX c #EAD8CE",
"IX c #EBD7D0",
"UX c #F4EDC3",
/* pixels */
"g.~.).).4XtXgXhXlXzXnXnXJXJXJXJXFXnXFXFXKXLXLXPXHXLXHXHXHXHXpXH ",
"j.^.^.).).gXgXzXzXvXMXJXJXJXJXJXJXJXJXJXKXLXIXLXfXMXMXMXfXfXpX#.",
"N.~.^.).Q.).&X=XxXFXJXJXJXJXJXJXJXJXJXJXKXKXGXAXpX$X[.$XsXsXpX:.",
"~.^.N.U L L E *.k.-XvXvXJXJXJXMXFXDXFXbX,X5.%.J O.o.H v F +XpX3.",
"^.U = * % @ @ 6 n T F.-X<XzXlXlX7X;X,X].J l < X 8 H o.H 0 F $X3.",
"N.a d M y 3 @ @ - 3 M >.k.%X&X6X%X{.-.G u 6 9 z J 7.#X@X#X6.Y.E.",
"N.` ` w.=.) E m 4 & ; s ) J.=XhX>XF.&.m y x @.].}.5.-.].+XpX$XyX",
"~.g.( P m u , $ @ 5 w p K J.hXJXDX[.W N N c +   : q F $.[.*XpXuX",
"N. .Y k ; 7 0 $ 2 T m ^ q.v.3XzXcX@X].+.@.{.b 1 v l 9 +.C.%XyXuX",
"B.c.| / ~ q.>.-.-.;.*.e.h.v.3X7XlX-X1X-XD.a.d.1.|.,X,X:X:X>XuXuX",
"B.B.m.(.).P.C.L.D.r.r.y.v.J.4X7XvX<X,X|.].s.a.D.{.-X<XdXbXsXsXsX",
"m.m.I.).&X&X&X.X.X.Xy.H.J.I.&X6XlXcXaX1X1X,X1X1X1X<XaXfXfXxXaXhX",
"n.m.!.4X6X6X<X;X&XK.I.K.V.K.I.5X6X<XcXcXcXcX1X7X<X<X7XbXcXcXlXuX",
"B.V.`.4X4X6X3X3X&XK.`.K.v.v.3X7XaX>XaXcXbXvX8X7X6X7XlXbXxXbXxXaX",
"V.!.(.).5X5X3XI.`.I.K.H.x.P.3XlXlXcX-X>XFXSXcXcX7XcXvXFXDXxXlXaX",
"V.!._.`.4X5X5X3X`.3XI.x.J.3XvXFXKXFX<X-X7XFX8X8X7XcXDXFXDXxXlXuX",
"V.V.I.`.6X6X5X3X`.`.K.K.&X4XvXFXDXDXJXbX-X9XcXcXvXFXFXFXFXxXaX>X",
"m.V.V.`.5X6X6X3XI.I.K.v.~ y..X<X|.Q Q L..X-X8X8X8XFXFXDXvXsXyX>X",
"c.n._.!.4X5X5X3XI.`.b.e O p ^ =.-.i > S L.<XlX-X9XlXnXvXsXuX=XyX",
"B.n.V.`.`.`.3XK.I.`.!.} } v.e.R 1.1XdXAXSXDXFX<XP.;XlXaXuX>X=X=X",
"B.c.n.V.!.I.K.H.I.K.I.`.(.;XvXcXbXSXDXAXDXDXdXSXuX>XyX>X*X*XyX*X",
"B. .b.m.J.K.H.K.K.K.K.J./.hXvXxXvXFXDXSXSXSXdXaXsXaXhX=X>X=X>X*X",
"^.c.c.n.!.!.H.Q./.(./.).).&XlXvXcXaXbXdXbXbX,XR.-XlXxXuXuXuXyX=X",
"tX .c.V.~.!.B.g.| e.x.e.9.' [ 8.8.8.r.i.a.<.Q m k.hXhXuXxXuXuX*X",
"jX .c.V.!.).n.I j h Z C g V V S A ..0.p.s.L.;XC.l.gXxXuXuXuXuXW.",
"jXV. .m.V.^.).h.n.x.] ] 9.f.'.oX'.'.oX9XDXKXxXxXxXuXuXuXuXuX*XW.",
"mXeX .c.c.Q.4X).c.V.!.u.u.f.U. X X X<X<XcXcXcXnXxXuXyXyXuXyXW.Z.",
"BXCXz.j.j.n.(.).Q.m.v.v.v.H.C.C.F.@X%X,XdXsXxXlXsXuX*X=XyX*XE.W.",
"ZXUXkX` j.j.B.!.!.V.n.n.l.l.t.=.t.A./.>X>XuXuXxXxXuX*XW.W.E.Y.uX",
"BXVXUXqX` j.c.!.^.(.Q.I.(.(././.&X>X>XhXuXxXxXnXxXyXyX*XW.Y.*XuX",
"NXNXNXiXM. .j.B.!.).).).=XgXlXzXxXnXnXnXbXMXMXxXuXyXyX*XR.W.yXyX",
"rXqX0X4.4.2. .c.!.).).tX=XhXxXzXvXMXnXFXMXMXbXsXuXyXyX+XR.yXyXyX"
};
