/* XPM */
static char *bd2e0034ed994efdaefc5be4a3c125bb[] = {
/* columns rows colors chars-per-pixel */
"32 32 100 2 ",
"   c #5D402B",
".  c #5E412B",
"X  c #5D4432",
"o  c #61432D",
"O  c #62442E",
"+  c #63452E",
"@  c #65462F",
"#  c #674731",
"$  c #694931",
"%  c #6B4B33",
"&  c #6C4C33",
"*  c #6D4C34",
"=  c #694E3B",
"-  c #704E35",
";  c #714F36",
":  c #6D513D",
">  c #745137",
",  c #745238",
"<  c #755238",
"1  c #775439",
"2  c #79553A",
"3  c #7C573B",
"4  c #78563D",
"5  c #7C573C",
"6  c #7E593D",
"7  c #477A26",
"8  c #487B27",
"9  c #497C28",
"0  c #4B7E2B",
"q  c #4C7F2B",
"w  c #645144",
"e  c #6A5241",
"r  c #765B47",
"t  c #7D5C43",
"y  c #7D5D46",
"u  c #725D4E",
"i  c #7D624D",
"p  c #67605B",
"a  c #6F665F",
"s  c #776C63",
"d  c #7F7268",
"f  c #805B3E",
"g  c #825C3F",
"h  c #876042",
"j  c #896143",
"k  c #8F6646",
"l  c #85634A",
"z  c #8D6748",
"x  c #926948",
"c  c #966B4A",
"v  c #966C4A",
"b  c #986D4B",
"n  c #9E714E",
"m  c #9F724E",
"M  c #9F724F",
"N  c #8B6C53",
"B  c #9D7251",
"V  c #927359",
"C  c #A47551",
"Z  c #A47651",
"A  c #A67752",
"S  c #AF7E57",
"D  c #A17C5D",
"F  c #837A74",
"G  c #A27E62",
"H  c #4D802C",
"J  c #4E802D",
"K  c #4E812E",
"L  c #509026",
"P  c #57972D",
"I  c #518430",
"U  c #5D9D33",
"Y  c #5F9F35",
"T  c #60A036",
"R  c #61A137",
"E  c #62A238",
"W  c #64A43A",
"Q  c #65A53B",
"!  c #66A63C",
"~  c #67A73D",
"^  c #68A83E",
"/  c #69A93F",
"(  c #6BAB41",
")  c #6CAC42",
"_  c #6EAE44",
"`  c #79A849",
"'  c #70B046",
"]  c #73B349",
"[  c #74B44A",
"{  c #76B64C",
"}  c #77B74D",
"|  c #79B94F",
" . c #7EBE54",
".. c #7FBF55",
"X. c #8AB95A",
"o. c #8B8078",
"O. c #84C45A",
"+. c #92C162",
"@. c #93C263",
"#. c #97C667",
/* pixels */
"[ { [ { X.! ! ! O.O.~ T Y Y _ ] ( ( ' } } @.! T ^ ^ T ^ T L .._ ",
"Q / / X.X.[ { ! Q T ` T Y | Y X.T @.[  .@.^ ~ [ | E L Y ^ L ( ..",
"( [ { ( X.] X.| | ` ` o T ( ( | Y  .@.} @._ ^ [ ^ ^ } } L ^ ^ ( ",
"0 [ q q ( X.X.( | T   % | | E H Y T [ @.@.[ @.[ H } P ~ ^ T K K ",
"+ H o o 7 U Q { | / % r H ' H # ....@.[ X.#.#.K . H H ^ ^ 7 + . ",
"> o % e   7 8 0 / ( 1 ;   H o 6 [ [ I I ( @.K . + . . H 7 o , ; ",
"m ; p a t O   o [ H > n %   1 v H 7 o . 7 ( o 3 j $ f + o 1 3 v ",
"n 3 F j c 6 3 3 q   6 % 3 % Z c 7 . 3 ; . H w z 3 j v 1 , & 6 6 ",
"c 3 1 c k c 3 v o % ; k 3 1 ; 3 O ; & & $ X a p 3 6 v 1 & 1 , 1 ",
"c v ; k k h h k 5 % % k j j 3 * O ; # 3 3 O p a 1 3 3 1 1 ; m A ",
"v 6 % n j k Z v j j n k v ; e * f f 1 n j 1 > f ; j m 3 6 Z D z ",
"6 3 & v v j k v N 6 v k # * 3 ; 6 3 3 A f j & ; = 6 f z ; v 1 j ",
"n ; ; & 6 6 j k F F 5 1 3 1 j S n v f 3 Z A S n & 1 k z 3 1 m m ",
"n A 3 & B 3 f o.F ; j ; 1 j A A k A 1 3 z n v A 1 h j h z j v v ",
"f n * j n v 3 * 3 k 1 * B 3 6 v v k # n k j k j 3 1 k - z m 6 v ",
"f 3 j v 6 n G Z c v 3 k f f 3 * v k n v v 1 V f f A 3 3 f v k j ",
"n 6 6 3 3 h v c k k h k x j 3 ; > v v 3 k n 6 f k 3 ; 3 % j 3 h ",
"3 c h 1 1 v i h 3 j c k k 6 # # 3 6 h k k 6 V ; 3 j Z n 3 * # ; ",
"h k 1 % 1 k k 1 h k z k # # j 3 h 3 k ; j 3 3 3 S n n k ; j n 3 ",
"f r B 5 * # 3 j f 6 & * % j 6 3 6 r h 3 Z c 1 j x v k v 3 h c k ",
"f 1 c n ; 6 n n f ; 3 r n Z j k 6 & A S v c & 3 6 h k N F F h 5 ",
"3 h v 6 1 c h c c n 3 c n z k 1 % # A v k v j O j k k j 1 F 3 n ",
"Z ; z 3 i 3 n Z n n S S 1 6 k s F p k k V k 3 ; ; k B j k ; 1 6 ",
"n k j j 6 c k k Z h c Z n 3 Z v d p j n v f 3 1 ; # c f 3 % ; ; ",
"c 1 % v k v k ; k v v k n n ; 3 6 3 3 6 z v 3 * 3 6 f n n n # n ",
"f 6 j k n ; ; k k k 3 k n S n 6 f 6 * 3 3 ; * 3 k 3 n n m Z k c ",
"6 v z m h 3 j 6 : l l k 6 v G 3 A f % h j n ; 6 * j S k 6 v V k ",
"b n k f c j 3 Z u y f k j 6 3 * 6 3 * ; Z S 3 1 e 6 A k h v 1 j ",
"k h 6 3 f Z S k 3 1 & * 3 3 > 6 3 ; t n Z 6 m 3 1 3 3 k z k n Z ",
"3 c k 3 5 n v v k * 1 * 1 j 6 ; & Z n 3 4 3 f v x ; n ; 3 n 6 c ",
"c k ; j n c k j k 3 k ; 1 F 3 f Z C ; n B j 3 ; x k k * 3 * & f ",
"v 1 j f Z z V 6 v v k z o.o.3 ; v k C c 6 1 i 6 v v k z c 6 * # "
};
