/* XPM */
static char *ef6303b833084586f30240b1b1708da9[] = {
/* columns rows colors chars-per-pixel */
"32 32 4 1 ",
"  c gray13",
". c gray26",
"X c gray38",
"o c gray62",
/* pixels */
".oo   XXXXXXXXXXXXXXXXXXXX   oo.",
".oo   XXXXXXXXXXXXXXXXXXXX   oo.",
".oo   XXXXXXXXXXXXXXXXXXXX   oo.",
".oo   XXXXXXXXXXXXXXXXXXXX   oo.",
".oo   XXXXXXXXXXXXXXXXXXXX   oo.",
".oo   XXXXXXXXXXXXXXXXXXXX   oo.",
".oo   XXXXXXXXXXXXXXXXXXXX   oo.",
".oo   XXXXXXXXXXXXXXXXXXXX   oo.",
".oo   XXXXXXXXXXXXXXXXXXXX   oo.",
".oo   XXXXXXXXXXXXXXXXXXXX   oo.",
".oo   XXXXXXXXXXXXXXXXXXXX   oo.",
".oo   XXXXXXXXXXXXXXXXXXXX   oo.",
".oo   XXXXXXXXXXXXXXXXXXXX   oo.",
".oo   XXXXXXXXXXXXXXXXXXXX   oo.",
".oo   XXXXXXXXXXXXXXXXXXXX   oo.",
".oo   XXXXXXXXXXXXXXXXXXXX   oo.",
".oo   XXXXXXXXXXXXXXXXXXXX   oo.",
".oo   XXXXXXXXXXXXXXXXXXXX   oo.",
".oo   XXXXXXXXXXXXXXXXXXXX   oo.",
".oo   XXXXXXXXXXXXXXXXXXXX   oo.",
".oo   XXXXXXXXXXXXXXXXXXXX   oo.",
".oo   XXXXXXXXXXXXXXXXXXXX   oo.",
".oo   XXXXXXXXXXXXXXXXXXXX   oo.",
".oo   XXXXXXXXXXXXXXXXXXXX   oo.",
".oo   XXXXXXXXXXXXXXXXXXXX   oo.",
".oo   XXXXXXXXXXXXXXXXXXXX   oo.",
".oo   XXXXXXXXXXXXXXXXXXXX   oo.",
".oo   XXXXXXXXXXXXXXXXXXXX   oo.",
".oo   XXXXXXXXXXXXXXXXXXXX   oo.",
".oo   XXXXXXXXXXXXXXXXXXXX   oo.",
".oo   XXXXXXXXXXXXXXXXXXXX   oo.",
".oo   XXXXXXXXXXXXXXXXXXXX   oo."
};
