/* XPM */
static char *_bc343e607df4312da5cec3a3361ed63[] = {
/* columns rows colors chars-per-pixel */
"32 32 84 1 ",
"  c #4D2409",
". c #562609",
"X c #5F290B",
"o c #672B0C",
"O c #692B0C",
"+ c #7B7A19",
"@ c #BB3E16",
"# c #BF4116",
"$ c #81670D",
"% c #8C720F",
"& c #947A0F",
"* c #987E0F",
"= c #856B12",
"- c #896E11",
"; c #857213",
": c #8C7411",
"> c #827916",
", c #8B7A14",
"< c #88771D",
"1 c #847D19",
"2 c #8D7A19",
"3 c #927513",
"4 c #997517",
"5 c #947B12",
"6 c #9A7E13",
"7 c #927618",
"8 c #947A19",
"9 c #9D7D1C",
"0 c #927620",
"q c #C14416",
"w c #C74C16",
"e c #C94D16",
"r c #7F801A",
"t c #9E840F",
"y c #9F8A0F",
"u c #8E8316",
"i c #83831A",
"p c #8B8219",
"a c #948516",
"s c #9C8313",
"d c #948A17",
"f c #9B8B15",
"g c #938219",
"h c #98811A",
"j c #9E9016",
"k c #A1830F",
"l c #A38A0E",
"z c #A98D0C",
"x c #AC910E",
"c c #B2970E",
"v c #A18414",
"b c #A88715",
"n c #A48A12",
"m c #AA8C13",
"M c #A28319",
"N c #AB8719",
"B c #AC8D19",
"V c #A39216",
"C c #AC9213",
"Z c #AF9816",
"A c #AE941A",
"S c #B49513",
"D c #BB9611",
"F c #B49A13",
"G c #BA9E12",
"H c #BE961E",
"J c #B0991A",
"K c #BE9E1B",
"L c #BCA112",
"P c #B7A01D",
"I c #BCA01A",
"U c #C09C1C",
"Y c #C4AC0F",
"T c #CDAF0F",
"R c #D2B10F",
"E c #DAB40F",
"W c #C1A511",
"Q c #C4A912",
"! c #CAAE11",
"~ c #C2A41A",
"^ c #C9A71B",
"/ c #CDAA1B",
"( c #CDB311",
") c #D3B512",
/* pixels */
":G2fS6mvmMt&sacx3L1z%5kMCsa4CmmD",
"9ab>FtS:Giz%=+c&NaCsln8v2Fs<Gs5u",
":bM8D82NkN5ktam8S*ts=df6hCn<MW6D",
"9Ihf*3S6Nka*hfmb6H4y6aFsnn8s<W3u",
":L1z%3C3Sul3=uSx:G1z:=1c$S>b>GkD",
"9I6u*mpW%^3N0W3u9I6u6muL%^*b0W32",
"3s-*%%-t-k33-*-636-6:%%6-t53:5-6",
"#weeee#q@eewwq@q@qeewweqq@eeewq@",
"OO...o     OOOOOOO...o     oOOOO",
"8**c&3%t%8&t*G33%385&3tl*5LG3335",
"URZTtGxLmZcTm!3RUSnE&SxGmSc!mTv)",
"K)5Yx(3(Z~l(vTM!KDCYxWlQZ^n!M!k!",
"~GnE5FzLmZc(m!hWHcnE&FxLNSc(m(6R",
"J)nRxGxLS/l)v(B!KFLRxGxLZ/l(v!NQ",
"HSnEsQx(Z/b(C!b!~)ZYmLx(Z^c!m!3)",
"UFLRxFxGS/n(v!k!UFGRxFxGZ/n(b(NG",
"~)ZYx!x)Z/l!mGMQ~)ZYx!x)Z/l(m!A!",
"J)5Yx!u(ZPn(v!6)J)6Yx!&(ZPn(v!k!",
"HFVE&cxGmZc(C!6WUZnE*cxGVZc(m!8)",
"UFL(xGxLS/n(b!B!UFLRxFxGF/l)bTNG",
"~)FYx!x)Z/n!m!B!~)ZYC!z)Z/l(x!A!",
"Z)5Yx(&(ZKn(v!t!J)5Qx!a(ZPn!M!k!",
"5t:t%F%t353t-t%&5t%6:W%t35&t-s%5",
"##ew######eeeeeeweq#####ewq#@@qq",
"oOO  XX  O....O oOO  Xo  O....o ",
";3:35&-,;:::35;5;&%:5&=,;:%,3*-&",
"ifnd+,Wd7QDdhd=Dixfn1>Qd8QSd9f:S",
"VCnu5sLS1Ma;vd6sACdvu;Lu6GZSCiSh",
"iC21,V6Z8Gm1vj5ndshZu3G+fCp8GS+b",
"t15ZnunC2LV8GSd8GVvfhGC87Lj7WcaS",
"rj,np2LLsFisGCmSCLnj1,>v+Wm8CV=D",
"+n>v+;Gj7GGuZu-Guh2m+:Gu7Lcr9a=D"
};
